<svg xmlns="http://www.w3.org/2000/svg" xmlns:xlink="http://www.w3.org/1999/xlink" width="144" height="144" viewBox="0 0 144 144">
    <defs>
        <path id="a" d="M0 .33h143.67v143.168H0z"/>
    </defs>
    <g fill="none" fill-rule="evenodd">
        <g transform="translate(0 .172)">
            <mask id="b" fill="#fff">
                <use xlink:href="#a"/>
            </mask>
            <path fill="#20007A" d="M143.67 71.914c0 39.535-32.162 71.584-71.835 71.584C32.16 143.498 0 111.448 0 71.914 0 32.379 32.16.329 71.835.329c39.673 0 71.835 32.05 71.835 71.585" mask="url(#b)"/>
        </g>
        <path fill="#FFF" d="M98.306 57.29c2.719-1.39 5.42-2.815 8.095-4.287 2.147-1.181 5.54-2.307 6.584-4.634.507-1.133-.088-2.369-1.403-2.436-2.61-.134-5.085 2.27-7.227 3.58a301.057 301.057 0 0 1-7.884 4.65c-2.041 1.164-.238 4.186 1.835 3.127M101.846 70.889c2.997.32 5.98.715 8.964 1.137 2.32.328 5.005 1.092 7.282.374 1.143-.36 1.29-1.811.323-2.457-2.064-1.38-5.19-1.34-7.616-1.536-2.979-.241-5.966-.378-8.953-.481-1.948-.068-1.86 2.764 0 2.963M102.348 82.145c1.342 1.212 3.31 1.806 4.978 2.478 1.727.697 3.409 1.319 5.262 1.558.896.115 1.456-1.271.76-1.828-1.492-1.19-3.165-1.979-4.911-2.74-1.629-.71-3.344-1.666-5.125-1.786-1.166-.079-1.816 1.55-.964 2.318"/>
        <path fill="#F2A0C5" d="M72.796 95.749s6.4-1 10.988-4.168c4.589-3.167 5.964-12.025 4.564-15.048-1.402-3.022-4.17-2.069-5.105.17-.934 2.24-3.558 9.163-9.31 9.748-5.751.585-6.292-7.911-7.023-12.73-.73-4.82 3.022-10.277 5.664-13.2 2.642-2.924 5.682-2.82 8.666-1.952 2.985.869 2.754 8.31 3.977 11.127 1.223 2.817 4.836-.728 4.836-.728 2.324-8.098-5.276-17.679-5.276-17.679-12.104-7.56-19.34 3.912-21.337 5.92-1.997 2.01-2.437-3.634-2.437-3.634.698-14.942 3.914-15.133 6.211-22.348 2.299-7.216-2.656-6.458-2.656-6.458-9.945 6.28-10.77 32.015-13.863 33.176-3.093 1.161-3.628-12.216-3.273-18.687.353-6.471 3.88-9.37 4.345-10.99.465-1.619.062-5.645-1.916-6.018-1.979-.374-4.744 1.58-8.246 9.977-3.502 8.397-1.012 23.53-.531 25.41.48 1.88-1.71 6.565-3.951.753-2.24-5.812-1.919-12.9-1.75-14.695.168-1.795.89-5.356-1.33-6.67-2.219-1.312-4.21 2.196-4.21 2.196-3.8 7.722 2.9 27.04 5.355 34.675 2.455 7.635.255 16.702.167 23.231s-6.787 25.498-7.652 29.971c-.06.316-.151.736-.266 1.239a71.612 71.612 0 0 0 36.337 14.867c.245-4.13.62-8.733 1.182-13.807 2.803-25.362 7.84-33.648 7.84-33.648"/>
    </g>
</svg>
