<svg xmlns="http://www.w3.org/2000/svg" xmlns:xlink="http://www.w3.org/1999/xlink" width="32" height="32" viewBox="0 0 32 32">
    <defs>
        <path id="a" d="M0 0h32v32H0z"/>
    </defs>
    <g fill="none" fill-rule="evenodd">
        <mask id="b" fill="#fff">
            <use xlink:href="#a"/>
        </mask>
        <path fill="#FFF" d="M20.802 10.555c-1.144-1.124-1.543-2.325-2.225-2.461-.683-.135-2.047-.033-1.92-.993 0 0 .321-.227.479-.706.156-.48.145-.981.038-1.342-.108-.36-.63-1.546-1.996-.984-1.116.458-.717 1.854-.517 2.081.201.227.555.613.585.813.03.2.091.762-.531 1.106-.622.345-1.417.554-1.38 1.815.014.505-.134 1.056-.227 1.056-.088 0-.646-.236-.882-.451-.556-.509-.88-1.044-1.066-1.244-.185-.201-1.41-.284-1.736-.366-.325-.081-.806-.216-.713-.082.093.134.744.229 1.053.483.309.255.697.216.946.297.247.08.687.88 1.453 2.093.482.765.923 1.07 1.167 1.08.31.013.498-.007.81-.34.31-.331.452.26.39.553-.064.294-1.04 1.755-.76 4.366.188 1.753.864 2.926.864 4.087 0 .747-.183 2.02 0 2.9.184.882.42 1.666.418 2.172-.002.508-.128 1.094-.068 1.654.061.56.523 1.248 1.089.99.174-.079.379-.014.566.033.292.072.544-.12.384-.51-.122-.3-.745-.498-.43-2.23.283-1.554.697-2.08.764-4.345a5.475 5.475 0 0 1 .314-1.664c.285-.807.696-2.11.892-3.412.317-2.107.163-1.897.659-2.108.497-.212 1.695-1.54 2.009-2.445.312-.906.715-.772-.429-1.896M32 29.375A2.626 2.626 0 0 1 29.374 32H2.626A2.626 2.626 0 0 1 0 29.375V2.625A2.626 2.626 0 0 1 2.626 0h26.748A2.626 2.626 0 0 1 32 2.625v26.75zm-11.59-17.5c.03.213-.254 1.503-.456 1.756-.202.253-.58.526-.93.347-.533-.272-.843-1.256-.733-1.896.11-.64.283-1.546.283-1.546s.144-.275.439-.06c.293.214 1.367 1.185 1.397 1.398" mask="url(#b)"/>
    </g>
</svg>
