<svg xmlns="http://www.w3.org/2000/svg" width="132" height="33" viewBox="0 0 132 33">
    <g fill="#FFF" fill-rule="evenodd">
        <path d="M79.397 12.582c-.242.327-.695.68-1.114.449-.638-.352-1.009-1.627-.877-2.456.133-.83.34-2.003.34-2.003s.172-.357.524-.079c.352.278 1.638 1.536 1.674 1.812.036.277-.305 1.949-.547 2.277m1.017-3.986c-1.37-1.456-1.848-3.013-2.665-3.188-.817-.176-2.452-.042-2.3-1.287 0 0 .386-.293.574-.914.188-.622.175-1.272.047-1.74-.129-.466-.753-2.002-2.391-1.274-1.336.594-.859 2.402-.618 2.696.24.295.663.795.699 1.054.036.26.109.987-.636 1.433-.744.448-1.697.718-1.653 2.352.017.654-.16 1.368-.272 1.368-.106 0-.774-.305-1.056-.584-.666-.66-1.055-1.352-1.276-1.612-.223-.26-1.69-.368-2.08-.473-.389-.105-.964-.28-.853-.106.11.173.89.296 1.261.626.37.33.835.28 1.133.384.295.104.822 1.14 1.739 2.712.577.99 1.105 1.385 1.397 1.398.373.017.597-.008.97-.44.373-.43.542.337.466.717-.075.38-1.244 2.273-.91 5.657.225 2.27 1.034 3.79 1.034 5.294 0 .969-.22 2.619 0 3.76.22 1.14.501 2.157.499 2.813-.002.657-.153 1.417-.08 2.143.071.726.624 1.616 1.302 1.283.209-.103.454-.02.678.041.35.094.652-.155.46-.661-.146-.387-.892-.644-.514-2.89.34-2.012.835-2.694.916-5.628a7.62 7.62 0 0 1 .376-2.157c.343-1.045.835-2.734 1.07-4.421.38-2.73.195-2.457.79-2.732.595-.274 2.03-1.994 2.405-3.168.375-1.174.857-1-.512-2.456M110.445 14.27c.924 0 1.676-.764 1.676-1.702 0-.931-.746-1.694-1.663-1.701-1.489-.01-10.61-.017-10.61-.017v15.97c0 3.774 2.042 5.61 6.242 5.61.49 0 2.869-.003 4.36-.009.921-.006 1.671-.77 1.671-1.706 0-.94-.753-1.705-1.68-1.705h-4.324c-2.542 0-2.663-.526-2.663-2.19v-3.913h7.036c.9 0 1.631-.743 1.631-1.656 0-.914-.732-1.657-1.631-1.657h-7.036v-5.322l6.991-.002zM26.215 14.27c.924 0 1.676-.764 1.676-1.702 0-.931-.746-1.694-1.664-1.701-1.488-.01-10.61-.017-10.61-.017v15.97c0 3.774 2.042 5.61 6.243 5.61.49 0 2.869-.003 4.36-.009.92-.006 1.67-.77 1.67-1.706 0-.94-.753-1.705-1.679-1.705h-4.325c-2.542 0-2.662-.526-2.662-2.19v-3.913h7.035c.9 0 1.632-.743 1.632-1.656 0-.914-.732-1.657-1.632-1.657h-7.035v-5.322l6.99-.002zM93.529 14.27c.925 0 1.677-.765 1.677-1.704 0-.934-.748-1.698-1.667-1.702-1.496-.01-10.615-.014-10.615-.014v19.065c0 1.293 1.037 2.346 2.311 2.346h1.295v-9.354h7.016c.89 0 1.618-.692 1.658-1.578a1.655 1.655 0 0 0-.449-1.22 1.628 1.628 0 0 0-1.18-.515H86.53l.004-5.324h6.995zM8.933 10.873c-.993 0-1.8.82-1.8 1.828V23.86c0 4.276-1.294 5.003-4.267 5.016-.314 0-.704-.007-1.173-.02-.896 0-1.638.698-1.69 1.591-.027.47.134.92.452 1.261.314.338.756.532 1.213.532l1.252.003c5.476 0 7.813-2.508 7.813-8.383V12.701c0-1.008-.807-1.828-1.8-1.828M32.666 10.825l.001 19c0 1.34 1.08 2.436 2.401 2.436h1.205V14.293h3.987c1.998 0 3.618 1.644 3.618 3.672v12.394c0 .885.588 1.698 1.444 1.867 1.151.226 2.162-.668 2.162-1.796V17.653c0-3.77-3.01-6.825-6.724-6.826l-8.094-.002zM52.295 10.825l.002 19c0 1.34 1.08 2.436 2.4 2.436h1.206v-4.785h-.001V14.293h3.988c1.997 0 3.617 1.644 3.617 3.672v12.394c0 .885.589 1.698 1.445 1.867 1.15.226 2.161-.668 2.161-1.796V17.653c0-3.77-3.01-6.825-6.723-6.826l-8.095-.002zM124.897 20.531h-3.648v-6.264h3.648c1.704 0 3.085 1.403 3.085 3.132 0 1.73-1.381 3.132-3.085 3.132m6.539 8.965l-3.654-6.169a6.547 6.547 0 0 0 3.75-5.939c0-3.615-2.886-6.545-6.447-6.545h-7.432v18.912c0 1.381 1.108 2.506 2.468 2.506h1.112v-8.328h2.704l4.42 7.446c.323.543.913.882 1.539.882.656 0 1.24-.346 1.564-.925a1.83 1.83 0 0 0-.024-1.84"/>
    </g>
</svg>
