<svg xmlns="http://www.w3.org/2000/svg" width="130" height="32" viewBox="0 0 130 32">
    <g fill="none" fill-rule="evenodd">
        <path fill="#6FE09E" d="M78.194 12.2c-.239.318-.684.661-1.098.436-.627-.341-.992-1.578-.862-2.382s.334-1.942.334-1.942.17-.346.516-.076c.346.27 1.613 1.489 1.649 1.757.036.268-.3 1.89-.539 2.207m1.001-3.865c-1.35-1.411-1.82-2.921-2.624-3.091-.805-.17-2.414-.041-2.264-1.248 0 0 .379-.284.565-.887.184-.602.171-1.233.045-1.686-.126-.452-.741-1.942-2.354-1.236-1.316.576-.846 2.33-.609 2.615.237.285.653.77.688 1.022.036.251.108.956-.626 1.39-.733.433-1.67.695-1.628 2.28.017.634-.158 1.326-.268 1.326-.104 0-.762-.296-1.04-.566-.656-.639-1.039-1.311-1.257-1.563-.219-.252-1.663-.357-2.047-.458-.384-.102-.95-.272-.841-.104.109.168.877.288 1.242.607.364.32.822.271 1.115.372.291.102.81 1.106 1.713 2.63.569.96 1.089 1.344 1.376 1.356.367.016.589-.008.956-.426.367-.417.534.326.459.695-.075.368-1.226 2.204-.896 5.485.22 2.202 1.018 3.676 1.018 5.134 0 .94-.216 2.54 0 3.646.215 1.106.493 2.091.491 2.728-.002.637-.15 1.374-.08 2.078.071.704.616 1.567 1.284 1.244.205-.1.447-.018.668.04.343.091.641-.15.453-.641-.144-.375-.88-.625-.507-2.802.335-1.952.822-2.613.902-5.458.02-.712.146-1.416.37-2.092.338-1.013.823-2.651 1.054-4.287.374-2.646.192-2.383.778-2.649.586-.266 2-1.934 2.37-3.072.368-1.139.843-.97-.506-2.382"/>
        <path fill="#9245DB" d="M108.772 13.838c.91 0 1.65-.74 1.65-1.65 0-.904-.735-1.643-1.638-1.65-1.466-.01-10.45-.016-10.45-.016l.001 15.484c0 3.661 2.01 5.441 6.147 5.441.483 0 2.826-.003 4.295-.008a1.659 1.659 0 0 0 1.645-1.654c0-.912-.742-1.654-1.654-1.654h-4.26c-2.502 0-2.621-.51-2.621-2.125v-3.793h6.929c.886 0 1.606-.72 1.606-1.606 0-.886-.72-1.607-1.606-1.607h-6.93v-5.16l6.886-.002zM25.818 13.838c.91 0 1.65-.74 1.65-1.65 0-.904-.735-1.643-1.638-1.65-1.466-.01-10.45-.016-10.45-.016l.001 15.484c0 3.661 2.01 5.441 6.147 5.441.484 0 2.826-.003 4.294-.008a1.659 1.659 0 0 0 1.646-1.654c0-.912-.742-1.654-1.654-1.654h-4.26c-2.503 0-2.622-.51-2.622-2.125v-3.793h6.93c.886 0 1.606-.72 1.606-1.606 0-.886-.72-1.607-1.607-1.607h-6.929v-5.16l6.886-.002zM92.112 13.838c.91 0 1.651-.742 1.651-1.652 0-.906-.736-1.647-1.641-1.651-1.473-.01-10.455-.013-10.455-.013v18.486a2.279 2.279 0 0 0 2.277 2.275h1.275v-9.07h6.91c.875 0 1.593-.671 1.633-1.53a1.59 1.59 0 0 0-.442-1.184A1.615 1.615 0 0 0 92.158 19h-6.939l.004-5.162h6.889zM8.798 10.543c-.978 0-1.773.795-1.773 1.773v10.82c0 4.147-1.275 4.851-4.202 4.864-.31 0-.694-.007-1.155-.02-.883 0-1.614.678-1.665 1.544-.027.456.132.891.445 1.223.309.327.745.515 1.195.515l1.233.003c5.393 0 7.694-2.432 7.694-8.129v-10.82c0-.978-.795-1.773-1.772-1.773M32.171 10.497l.001 18.424a2.37 2.37 0 0 0 2.365 2.362h1.187v-4.64h-.001V13.86h3.927a3.562 3.562 0 0 1 3.563 3.56v12.02c0 .857.58 1.646 1.422 1.81a1.779 1.779 0 0 0 2.13-1.742v-12.39a6.621 6.621 0 0 0-6.622-6.62H32.17zM51.503 10.497l.001 18.424a2.37 2.37 0 0 0 2.365 2.362h1.187v-4.64h-.001V13.86h3.927a3.562 3.562 0 0 1 3.563 3.56v12.02c0 .857.58 1.646 1.423 1.81a1.779 1.779 0 0 0 2.128-1.742v-12.39a6.622 6.622 0 0 0-6.621-6.62h-7.972zM123.004 19.909h-3.592v-6.074h3.592a3.038 3.038 0 1 1 0 6.074m6.44 8.693l-3.598-5.982a6.342 6.342 0 0 0-2.656-12.106h-7.32v12.694h.001v5.645c0 1.34 1.09 2.43 2.43 2.43h1.095v-8.075h2.663l4.354 7.22a1.78 1.78 0 0 0 1.515.855c.646 0 1.221-.335 1.54-.897.318-.563.31-1.23-.024-1.784"/>
    </g>
</svg>
