<svg xmlns="http://www.w3.org/2000/svg" xmlns:xlink="http://www.w3.org/1999/xlink" width="144" height="78" viewBox="0 0 144 78">
    <defs>
        <path id="a" d="M0 .025h53.25v8.26H0z"/>
        <path id="c" d="M.089.023h46.647V7.48H.089z"/>
    </defs>
    <g fill="none" fill-rule="evenodd">
        <path fill="#ED1E24" d="M80.789 40.563l.769 3.04c1.296-.316 2.075-.774 4.028-1.16 1.52-.295 3.174-.463 4.802-.255 1.64.212 2.556.828 3.118 2.049.286.614.44 1.34.52 2.1l-.02 2.459c-.106.057-4.903.361-5.591.448-4.788.616-9.606 3.225-8.857 9.258.466 3.753 2.484 5.462 6.264 5.92 2.073.252 3.443.013 5.159-.716.724-.307 1.397-.66 2.008-1.048.82-.51 1.536-1.245 1.7-1.34l.507 2.58h3.884c.073-.788.015-10.436.015-11.508v-5.77c0-1.863-.14-3.333-1.011-4.716-2.631-4.202-8.354-4.003-13.081-2.86-1.058.255-3.568.95-4.214 1.52zm13.289 17.228c-.021.555-1.325 1.298-1.752 1.57-1.965 1.246-4.788 2.073-6.63.225-1.783-1.786-1.282-5.123.641-6.304.968-.588 2.22-.862 3.536-.974 1.05-.088 3.2-.278 4.184-.166l.021 5.649zM125.676 40.39c.027.44.612 2.493.805 2.815.722-.137 2.31-.76 4.047-1.076 2.522-.465 6.665-.854 7.879 1.677.494 1.035.852 3.896.503 4.224-.218.148-2.322.163-2.805.193-2.783.163-5.085.36-7.499 1.543-2.56 1.249-4.69 3.442-4.161 7.313.48 3.516 2.498 5.052 6.273 5.49 2.774.323 4.955-.345 7.176-1.645.968-.566 1.376-1.057 1.705-1.26l.489 2.41 3.912.004V46.02c0-1.81-.152-3.071-1.037-4.422-2.548-3.888-8.432-3.628-13.056-2.623-1.084.234-3.556.876-4.23 1.415zm13.28 16.31c-.336.176-.688.492-1.073.753-1.095.736-2.458 1.416-3.903 1.584-4.285.492-5.293-3.622-3.916-5.743 1.471-2.265 6.138-2.141 8.905-2.151l-.014 5.557zM110.18 62.648l5.889.001c.195-.048.61-1.026.723-1.26.222-.47.397-.897.606-1.366.396-.888.762-1.878 1.106-2.825 1.422-3.92 2.572-8.197 3.551-12.286.24-1.008 1.374-5.87 1.374-6.566l-4.403-.003c-.961-.012-.57-.137-.83 1.881-.265 2.093-.692 4.186-1.182 6.158-.36 1.44-2.855 10.595-3.353 11.185l-1.257-4.904c-.472-1.631-.904-3.202-1.4-4.803l-2.173-7.113c-.248-.8-.484-1.658-.77-2.39l-5.204-.014c.022.473 3.418 11.402 3.648 12.173.623 2.081 1.225 3.992 1.838 6.038.596 2.015 1.295 4.097 1.836 6.094M71.034 38.171l.003 21.2c0 3.941-1.37 8.434-5.582 9.726.245.48 2.06 2.226 2.543 2.903 1.428-.237 3.525-1.465 4.313-2.168 1.208-1.07 1.95-1.903 2.844-3.615 1.784-3.414 1.5-7.031 1.5-11.126 0-8.366.047-16.741-.002-25.108-.657-.11-4.513-.038-5.62-.036v8.224M28.599 42.078l-1.626-2.385a38.406 38.406 0 0 1-1.555-2.522c-.91-1.6-2.004-3.631-2.507-5.649-.917-3.694 1.345-5.985 3.341-8.406.302-.37.655-.714.982-1.06 2.09-2.221 4.952-4.88 7.18-7.068 2.265-2.237 3.63-4.708 3.895-8.326C38.45 4.774 38.09.73 36.767 0c.394 2.835.485 4.76-.653 7.61-1.317 3.308-3.463 5.286-5.952 7.242-2.035 1.598-5.366 4.48-7.121 6.15-1.136 1.087-3.057 3.032-3.853 4.93-1.176 2.805-.01 4.642 1.25 6.603.601.936 1.211 1.734 1.853 2.57.747.978 1.411 1.652 2.01 2.416.63.81 1.41 1.556 2.099 2.327.43.476 1.775 1.93 2.199 2.23"/>
        <g transform="translate(0 65.455)">
            <mask id="b" fill="#fff">
                <use xlink:href="#a"/>
            </mask>
            <path fill="#3C8ACE" d="M52.168.74c.795 1.352.01 1.925-1.077 2.462-4.828 2.383-21.155 2.83-26.254 2.908-5.198.08-10.436-.138-15.457-1.066-.814-.148-4.391-.75-4.557-1.75-.11-.63.523-1.104.85-1.318 1.154-.757 3.27-1.28 4.726-1.559.42-.079 1.438-.194 1.752-.33C9.72-.29 2.011 1.082.325 3.61c-1.063 1.591.719 2.33 1.904 2.738 4.443 1.53 13.688 1.84 18.566 1.914 7.289.104 24.83.027 31.258-4.63.375-.27 1.113-.837 1.189-1.387.091-.685-.679-1.33-1.074-1.505" mask="url(#b)"/>
        </g>
        <path fill="#ED1E24" d="M31.556 45.818c.775-.274 3.06-2.205 3.676-2.854.808-.864 2.184-2.462 2.303-4.31.105-1.678-1.018-3.863-1.704-4.935-2.168-3.388-3.901-5.327-.966-9.084.982-1.25 2.046-2.231 3.29-3.29 1.49-1.269 3.928-3.002 5.674-4.131l1.99-1.318c-1.054.143-3.842 1.293-4.942 1.716-1.479.574-3.183 1.447-4.474 2.213-4.43 2.64-8.79 6.77-7.007 12.483 1.206 3.864 4.72 6.179 4.466 9.074-.154 1.774-1.807 3.549-2.306 4.436"/>
        <path fill="#3C8ACE" d="M40.208 63.74c-1.33-.556-2.332-1.201-3.523-1.982-.69-.455-.423-.418-1.307-.176-3.603.98-9.446.993-13.229.866-.973-.033-3.71-.127-4.262-1.139-.352-.637.127-1.102.314-1.465-2.48.552-5.005 2.826-1.556 4.72 3.88 2.125 12.035 2.148 16.281 1.315 1.209-.238 6.703-1.62 7.282-2.139M41.143 55.43c-1.039-.29-1.971-1.01-2.608-1.63-.556-.53-.366-.398-1.56-.176-4.299.796-17.093 2.185-20.756.508-.475-.219-1.022-.545-1.056-1.166-.04-.737.523-1.135.76-1.537-2.947.405-5.773 3.559-1.829 5.064 4.449 1.693 14.043 1.75 18.774 1.088 1.557-.222 7.083-1.416 8.275-2.15M44.883 45.8c-.579.024-1.353.198-1.937.29-.678.097-1.324.193-2 .28-4.07.553-8.581 1-12.655 1.23-3.18.181-15.175.566-16.965-1.054-.132-.728.728-1.185 1.255-1.465 2.056-1.07 4.244-1.43 6.27-2.045-2.8-.256-9.837 1.698-12.381 3.24-2.752 1.664 1.834 2.327 3.55 2.56 10.042 1.356 19.431.628 29.361-.74 1.62-.223 1.966-.133 3.069-.813.761-.47 1.758-.964 2.433-1.482"/>
        <g transform="translate(11.22 70.13)">
            <mask id="d" fill="#fff">
                <use xlink:href="#c"/>
            </mask>
            <path fill="#3C8ACE" d="M.089 5.076C2.863 6.26 8.905 6.98 12.041 7.239c4.408.368 9.247.282 13.654-.035 5.704-.41 12.47-1.075 17.49-3.665 1.193-.62 3.344-2.097 3.55-3.516-.358.166-.668.497-1.004.727C36.878 6.945 16.645 6.354 6.2 5.597L.09 5.076" mask="url(#d)"/>
        </g>
        <path fill="#3C8ACE" d="M46.601 43.293c2.192-.666 4.685-.223 6.074.977 1.5 1.3 1.517 3.767.435 5.678-1.448 2.549-4.487 4.822-7.004 6.357-.431.265-.848.464-1.223.734 1.623-.167 5.472-1.857 6.936-2.736 1.869-1.123 3.955-2.76 4.816-4.884 1.228-3.013-.559-5.313-2.462-6.401-1.094-.623-2.416-.995-3.955-.933-1.177.046-3.086.502-3.617 1.208"/>
    </g>
</svg>
