<svg xmlns="http://www.w3.org/2000/svg" width="83" height="80" viewBox="0 0 83 80">
    <defs>
        <linearGradient id="a" x1="49.997%" x2="49.997%" y1="-19.516%" y2="129.625%">
            <stop offset="0%" stop-color="#0994DC"/>
            <stop offset="35.001%" stop-color="#66CEF5"/>
            <stop offset="35.001%" stop-color="#66CEF5"/>
            <stop offset="84.616%" stop-color="#127BCA"/>
            <stop offset="84.616%" stop-color="#127BCA"/>
            <stop offset="100%" stop-color="#127BCA"/>
        </linearGradient>
        <linearGradient id="b" x1="50.001%" x2="50.001%" y1="-19.516%" y2="129.624%">
            <stop offset="0%" stop-color="#0E76BC"/>
            <stop offset="36%" stop-color="#36AEE8"/>
            <stop offset="36%" stop-color="#36AEE8"/>
            <stop offset="84.616%" stop-color="#00ADEF"/>
            <stop offset="84.616%" stop-color="#00ADEF"/>
            <stop offset="100%" stop-color="#00ADEF"/>
        </linearGradient>
        <linearGradient id="c" x1="49.999%" x2="49.999%" y1="110.922%" y2="-6.214%">
            <stop offset="0%" stop-color="#1C63B7"/>
            <stop offset="50%" stop-color="#33BDF2"/>
            <stop offset="100%" stop-color="#33BDF2" stop-opacity=".42"/>
        </linearGradient>
        <linearGradient id="d" x1="50.001%" x2="50.001%" y1="-19.515%" y2="129.627%">
            <stop offset="0%" stop-color="#166AB8"/>
            <stop offset="39.999%" stop-color="#36AEE8"/>
            <stop offset="39.999%" stop-color="#36AEE8"/>
            <stop offset="84.616%" stop-color="#0798DD"/>
            <stop offset="84.616%" stop-color="#0798DD"/>
            <stop offset="100%" stop-color="#0798DD"/>
        </linearGradient>
        <linearGradient id="e" x1="49.999%" x2="49.999%" y1="-19.521%" y2="129.627%">
            <stop offset="0%" stop-color="#124379"/>
            <stop offset="39%" stop-color="#1487CB"/>
            <stop offset="39%" stop-color="#1487CB"/>
            <stop offset="78.023%" stop-color="#165197"/>
            <stop offset="78.023%" stop-color="#165197"/>
            <stop offset="100%" stop-color="#165197"/>
        </linearGradient>
        <linearGradient id="f" x1="0%" y1="50.001%" y2="50.001%">
            <stop offset="0%" stop-color="#33BDF2" stop-opacity=".698"/>
            <stop offset="100%" stop-color="#1DACD8"/>
        </linearGradient>
        <linearGradient id="g" x1="50.01%" x2="50.01%" y1="94.686%" y2="-3.025%">
            <stop offset="0%" stop-color="#136AB4"/>
            <stop offset="60%" stop-color="#59CAF5" stop-opacity=".549"/>
            <stop offset="100%" stop-color="#59CAF5" stop-opacity=".235"/>
        </linearGradient>
        <linearGradient id="h" x1="-.001%" x2="99.999%" y1="50%" y2="50%">
            <stop offset="0%" stop-color="#05A1E6" stop-opacity=".247"/>
            <stop offset="100%" stop-color="#05A1E6"/>
        </linearGradient>
        <linearGradient id="i" x1="49.998%" x2="49.998%" y1="124.314%" y2="-9.421%">
            <stop offset="0%" stop-color="#318ED5"/>
            <stop offset="100%" stop-color="#38A7E4"/>
        </linearGradient>
        <linearGradient id="j" x1="49.999%" x2="49.999%" y1="91.2%" y2="-76.785%">
            <stop offset="0%" stop-color="#05A1E6"/>
            <stop offset="100%" stop-color="#05A1E6" stop-opacity=".549"/>
        </linearGradient>
        <linearGradient id="k" x1="50%" x2="50%" y1="100.01%" y2=".01%">
            <stop offset="0%" stop-color="#1959A6"/>
            <stop offset="50%" stop-color="#05A1E6"/>
            <stop offset="50%" stop-color="#05A1E6"/>
            <stop offset="91.759%" stop-color="#7EC5EA"/>
            <stop offset="100%" stop-color="#7EC5EA"/>
        </linearGradient>
        <linearGradient id="l" x1="59.804%" x2="38.471%" y1="94.568%" y2="5.755%">
            <stop offset="0%" stop-color="#165096"/>
            <stop offset="100%" stop-color="#0D82CA"/>
        </linearGradient>
        <linearGradient id="m" x1="49.995%" x2="49.995%" y1="76.998%" y2="-3.299%">
            <stop offset="0%" stop-color="#05A1E6"/>
            <stop offset="87.363%" stop-color="#0495D6"/>
            <stop offset="100%" stop-color="#0495D6"/>
        </linearGradient>
        <linearGradient id="n" x1="65.263%" x2="34.263%" y1="-4.161%" y2="105.844%">
            <stop offset="0%" stop-color="#38A7E4" stop-opacity=".329"/>
            <stop offset="96.153%" stop-color="#0E88D3"/>
            <stop offset="96.153%" stop-color="#0E88D3"/>
            <stop offset="100%" stop-color="#0E88D3"/>
        </linearGradient>
        <linearGradient id="o" x1="50.017%" x2="50.017%" y1="-.296%" y2="101.882%">
            <stop offset="0%" stop-color="#168CD4"/>
            <stop offset="50%" stop-color="#1C87CC"/>
            <stop offset="100%" stop-color="#154B8D"/>
        </linearGradient>
        <linearGradient id="p" x1="16.674%" x2="87.813%" y1="205.565%" y2="-19.836%">
            <stop offset="0%" stop-color="#97D6EE"/>
            <stop offset="70.329%" stop-color="#55C1EA"/>
            <stop offset="100%" stop-color="#55C1EA"/>
        </linearGradient>
        <linearGradient id="q" x1="6.89%" x2="75.783%" y1="6.3%" y2="116.771%">
            <stop offset="0%" stop-color="#7ACCEC"/>
            <stop offset="100%" stop-color="#3FB7ED"/>
        </linearGradient>
        <linearGradient id="r" x1="49.997%" x2="49.997%" y1="6.363%" y2="127.961%">
            <stop offset="0%" stop-color="#1DA7E7"/>
            <stop offset="100%" stop-color="#37ABE7" stop-opacity="0"/>
        </linearGradient>
    </defs>
    <g fill="none" fill-rule="evenodd">
        <path fill="#000" d="M69 30.32h-.83V33h-.338v-2.68H67V30h2v.32zM71.998 33h-.344v-2.015c0-.158.012-.353.028-.582a2.076 2.076 0 0 1-.091.293L70.589 33h-.168l-1.005-2.287a1.685 1.685 0 0 1-.09-.31h-.012c.012.121.016.316.016.587V33H69v-3h.455l.902 2.094c.069.157.112.279.133.36h.014c.06-.165.108-.288.142-.37l.92-2.084H72v3h-.002z"/>
        <path fill="#000" fill-rule="nonzero" d="M69.477 42.436c0-.147-.04-.253-.122-.322-.091-.074-.249-.113-.468-.113h-.315v.877h.38c.351 0 .525-.148.525-.442zm.491 1.829h-.433l-.276-.617c-.14-.31-.29-.464-.454-.464h-.233v1.08h-.357v-2.571h.715c.318 0 .557.07.72.215a.62.62 0 0 1 .209.485.637.637 0 0 1-.171.45.853.853 0 0 1-.475.252v.012c.142.033.283.19.42.475l.335.684v-.001zm.792-1.261c0-.506-.17-.933-.511-1.272a1.708 1.708 0 0 0-1.25-.509c-.507 0-.928.17-1.263.512-.335.343-.501.767-.501 1.269 0 .513.173.942.518 1.283.34.342.756.51 1.246.51.488 0 .904-.17 1.247-.515.343-.34.514-.768.514-1.278zm.24-.011c0 .568-.193 1.044-.58 1.428-.388.386-.863.579-1.43.579-.572 0-1.047-.19-1.425-.562-.378-.378-.565-.853-.565-1.43 0-.563.192-1.037.575-1.426.383-.388.86-.582 1.431-.582.56 0 1.03.186 1.41.555.39.38.584.857.584 1.438z"/>
        <path fill="#000" d="M19 49h-1.15v-6.715c0-.53.034-1.176.095-1.938h-.026c-.108.446-.206.768-.293.968L14.282 49h-.56l-3.35-7.63c-.094-.212-.193-.555-.293-1.023h-.025c.035.4.055 1.05.055 1.951V49H9V39h1.517l3.008 6.973c.227.525.374.925.445 1.197h.048c.196-.546.351-.956.47-1.226L17.56 39H19v10z"/>
        <path fill="#000" fill-rule="nonzero" d="M22.736 50h-1.524v-7.526h1.524V50zM23 39.776c0 .222-.099.408-.295.56a1.116 1.116 0 0 1-.711.228 1.14 1.14 0 0 1-.704-.22.68.68 0 0 1-.29-.568c0-.217.096-.402.29-.553.195-.15.431-.223.704-.223.28 0 .518.072.71.223.197.15.296.336.296.553z"/>
        <path fill="#000" d="M28.985 49.463c-.51.359-1.118.537-1.822.537-.953 0-1.72-.363-2.307-1.088-.569-.704-.856-1.613-.856-2.727 0-1.25.312-2.261.94-3.03.624-.77 1.465-1.155 2.521-1.155.578 0 1.09.13 1.539.387v1.254c-.496-.4-1.021-.598-1.584-.598-.678 0-1.228.271-1.656.813-.444.554-.67 1.295-.67 2.219 0 .888.206 1.59.615 2.109.41.516.956.774 1.644.774.582 0 1.126-.219 1.636-.655v1.16zM35 43.236c-.216-.149-.527-.221-.938-.221-.499 0-.918.2-1.257.604-.385.45-.577 1.075-.577 1.873V49H31v-6.88h1.228v1.418h.03c.18-.502.458-.888.83-1.162.349-.25.742-.376 1.176-.376.327 0 .57.032.736.094v1.142z"/>
        <path fill="#000" fill-rule="nonzero" d="M41.833 46.016c0-.977-.206-1.723-.617-2.235-.4-.491-.956-.737-1.674-.737-.708 0-1.276.248-1.7.746-.45.531-.673 1.282-.673 2.256 0 .913.213 1.63.644 2.141.428.515 1.005.772 1.729.772.748 0 1.321-.262 1.714-.782.384-.509.577-1.228.577-2.161M43 45.973c0 1.216-.32 2.192-.958 2.925-.64.734-1.502 1.102-2.585 1.102-1.067 0-1.917-.368-2.54-1.102-.61-.709-.917-1.644-.917-2.808 0-1.327.346-2.35 1.042-3.077.643-.674 1.503-1.013 2.581-1.013 1.06 0 1.89.355 2.486 1.057.592.707.891 1.68.891 2.916"/>
        <path fill="#000" d="M48 47.775c0 .625-.199 1.142-.598 1.555-.436.447-1.034.67-1.787.67-.616 0-1.157-.151-1.615-.46v-1.312c.51.486 1.074.73 1.692.73.826 0 1.24-.356 1.24-1.065 0-.299-.091-.546-.275-.737-.183-.195-.539-.428-1.068-.7-.546-.28-.934-.568-1.163-.866-.275-.353-.414-.813-.414-1.378 0-.633.216-1.16.643-1.58.428-.421.978-.632 1.654-.632.517 0 .98.119 1.392.358v1.23a2.218 2.218 0 0 0-1.478-.545c-.345 0-.622.1-.829.297a1.02 1.02 0 0 0-.313.769c0 .338.088.6.262.789.154.173.482.385.977.633.556.273.957.555 1.202.845.318.366.478.833.478 1.4"/>
        <path fill="#000" fill-rule="nonzero" d="M55.83 46.016c0-.977-.205-1.723-.617-2.235-.398-.491-.956-.737-1.673-.737-.707 0-1.275.248-1.701.746-.448.531-.67 1.282-.67 2.256 0 .913.213 1.63.64 2.141.433.515 1.01.772 1.731.772.75 0 1.321-.262 1.714-.782.384-.509.576-1.228.576-2.161m1.17-.043c0 1.216-.323 2.192-.961 2.925-.638.734-1.5 1.102-2.582 1.102-1.068 0-1.917-.368-2.54-1.102-.61-.709-.917-1.644-.917-2.808 0-1.327.349-2.35 1.04-3.077.643-.674 1.505-1.013 2.583-1.013 1.06 0 1.887.355 2.483 1.057.592.707.894 1.68.894 2.916"/>
        <path fill="#000" d="M62 40.186a1.315 1.315 0 0 0-.704-.193c-.742 0-1.11.517-1.11 1.553v1.129h1.552v.993h-1.552V50h-1.06v-6.332H58v-.993h1.126v-1.188c0-.806.223-1.438.677-1.894a1.923 1.923 0 0 1 1.43-.593c.327 0 .582.043.767.128v1.058zM66 49.754c-.259.164-.604.246-1.03.246-1.197 0-1.794-.746-1.794-2.239v-4.487H62v-1.03h1.176v-1.85c.35-.123.714-.256 1.099-.394v2.244H66v1.03h-1.725v4.28c0 .51.075.873.232 1.084.159.218.418.325.783.325.273 0 .51-.081.71-.245v1.036zM4 78a1.92 1.92 0 0 1-.592 1.407A1.957 1.957 0 0 1 1.973 80a1.878 1.878 0 0 1-1.4-.593A1.954 1.954 0 0 1 0 78c0-.557.19-1.028.574-1.417.382-.39.85-.584 1.399-.584.562 0 1.04.196 1.435.592.396.396.592.866.592 1.409M30 80h-3.707L12.837 58.48a10.02 10.02 0 0 1-.815-1.695h-.111c.096.576.145 1.813.145 3.708V80H9V53h3.966L26.02 74.182c.52.84.875 1.442 1.055 1.805h.073c-.121-.777-.184-2.101-.184-3.97V53H30v27zM50 80H36V53h13.392v2.86H39.094v8.983h9.543v2.862h-9.543v9.433H50V80zM71 55.862h-7.473V80h-3.04V55.862H53V53h18z"/>
        <path fill="url(#a)" d="M29 7.1C32.014 16.403 33.156 33 41.97 33c.671 0 1.35-.066 2.03-.197C35.988 30.917 35.038 14.501 30.149 6c-.384.352-.764.718-1.149 1.1"/>
        <path fill="url(#b)" d="M30 5.863c4.969 8.29 5.934 24.298 14.077 26.137.64-.114 1.28-.286 1.923-.503C38.691 28.028 36.67 12.484 31.028 5c-.342.275-.685.564-1.028.863"/>
        <path fill="#14559A" d="M36.429 1c-.668 0-1.345.064-2.025.189-1.777.325-3.583 1.069-5.404 2.194.497.476.97 1.022 1.416 1.617 1.851-1.492 3.69-2.595 5.523-3.258A12.603 12.603 0 0 1 38 1.186 6.526 6.526 0 0 0 36.429 1"/>
        <path fill="url(#c)" d="M50.781 29A32.443 32.443 0 0 0 53 27.047C49.927 17.804 48.827 1 39.92 1c-.636 0-1.279.06-1.92.179C46.113 3.205 47.152 20.927 50.781 29"/>
        <path fill="#3092C4" d="M38.355 1.096A4.749 4.749 0 0 0 37 .904l3 .013c-.546 0-1.096.059-1.645.179"/>
        <path fill="#1969BC" d="M51.334 30.051c-.34-.322-.661-.675-.978-1.051-1.459 1.027-2.912 1.806-4.356 2.314.514.25 1.053.435 1.624.55.443.09.902.136 1.384.136 1.62 0 2.901-.19 3.992-.711a7.577 7.577 0 0 1-1.666-1.238"/>
        <path fill="url(#d)" d="M36 1.588C43.338 5.444 43.976 22.908 49.83 30c.393-.278.782-.572 1.17-.883C47.335 20.958 46.287 3.047 38.096 1c-.699.131-1.397.326-2.096.588"/>
        <path fill="url(#e)" d="M31 5.332C36.497 12.864 38.465 28.51 45.586 32c1.463-.517 2.936-1.311 4.414-2.358-5.72-6.9-6.344-23.89-13.514-27.642-1.82.677-3.647 1.805-5.486 3.332"/>
        <path fill="url(#f)" d="M25.663 6.202C24.845 8.137 24.01 10.68 23 14c2.008-2.961 4.01-5.512 6-7.58A23.43 23.43 0 0 0 28.114 4a30.317 30.317 0 0 0-2.451 2.202"/>
        <path fill="#2B74B1" d="M28.737 4c-.244.181-.49.366-.737.562.323.73.622 1.55.9 2.438.369-.373.734-.734 1.1-1.079A15.14 15.14 0 0 0 28.737 4"/>
        <path fill="#125A9E" d="M29.782 3c-.26.226-.52.465-.782.716.406.687.78 1.453 1.133 2.284.29-.36.579-.706.867-1.034A15.631 15.631 0 0 0 29.782 3"/>
        <path fill="url(#g)" d="M78.552.004c-4.091 15.573-12.636 28.082-19.8 31.236h-.013c-.13.058-.26.111-.387.163-.018.01-.034.012-.047.018-.038.015-.073.026-.11.041-.018.01-.034.014-.05.02-.06.022-.12.04-.179.063-.025.01-.05.017-.074.026a.906.906 0 0 1-.089.028c-.026.01-.055.018-.086.03-.025.01-.052.015-.076.025-.053.015-.1.028-.153.046-.022 0-.042.012-.065.017-.032.01-.068.018-.103.028-.024.01-.045.014-.07.019l-.113.029-.137.03c.324.117.661.177 1.025.177C64.818 32 71.667 19.983 83 0h-4.45l.002.004z"/>
        <path fill="url(#h)" d="M20.57 1.655c.005 0 .01-.01.012-.01.005 0 .013 0 .016-.011h.008c.037-.013.07-.028.107-.043.01 0 .015 0 .021-.01.01 0 .019-.011.028-.013.039-.012.078-.028.115-.042h.006c.088-.027.168-.061.253-.093.012 0 .024-.01.038-.01.035-.012.072-.025.109-.034.017-.01.034-.01.05-.017.037-.011.074-.025.109-.033.016 0 .03-.011.042-.012.121-.035.241-.068.363-.098.017 0 .031-.01.05-.012a.67.67 0 0 1 .105-.022c.016-.01.034-.01.052-.016.036-.011.07-.012.108-.021h.024l.221-.043h.044c.036-.01.067-.011.102-.018.02 0 .04-.01.058-.01.032 0 .065-.012.098-.016.017 0 .034 0 .053-.011.077-.01.157-.015.238-.022A7.042 7.042 0 0 0 22.297 1C14.861 1 4.615 15.379 0 34h.89a273.522 273.522 0 0 0 4.017-7.78C8.139 13.032 14.723 4.037 20.57 1.654"/>
        <path fill="#0D82CA" d="M25 6c1-.724 2.004-1.375 3-1.953A10.132 10.132 0 0 0 27.286 3c-.806.741-1.542 1.72-2.286 3M26.105 1.057c.54.483 1.024 1.147 1.468 1.943.14-.183.28-.351.427-.51A8.313 8.313 0 0 0 26 1c.03.017.058.031.088.045 0 0 .012.012.017.012"/>
        <path fill="url(#i)" d="M5 25C11.926 11.698 15.208 3.279 21 1 15.028 3.33 8.302 12.117 5 25"/>
        <path fill="#127BCA" d="M27.284 3c-.098.169-.19.345-.284.539.157.446.304.932.447 1.461.185-.24.37-.468.553-.69A12.614 12.614 0 0 0 27.284 3"/>
        <path fill="url(#j)" d="M8.56 32.956c-.043.011-.086.011-.127.016H8.41c-.036 0-.074.01-.108.01h-.017c-.088.011-.174.011-.257.018H8c7.069-.2 10.3-3.779 11.903-8.969 1.22-3.935 2.22-7.25 3.097-10.031-2.96 4.214-5.935 9.237-8.925 14.864-1.442 2.712-3.635 3.845-5.515 4.087"/>
        <path fill="url(#k)" d="M8 33c1.85-.242 4.008-1.375 5.428-4.092 2.942-5.632 5.87-10.661 8.781-14.88C23.27 10.61 24.142 7.992 25 6c-5.802 5.68-11.627 15.127-17 26.997"/>
        <path fill="#05A1E6" d="M5 25a284.501 284.501 0 0 1-4 8h2.576c.34-2.803.825-5.477 1.424-7.999"/>
        <path fill="url(#l)" d="M22.936 1.008c-.021 0-.038.011-.056.011-.033.011-.067.011-.1.015-.02 0-.04 0-.06.01-.036.011-.07.012-.105.019-.016 0-.033 0-.046.01l-.228.041h-.026a.89.89 0 0 1-.11.022c-.02.01-.039.01-.056.015-.037.01-.073.015-.108.022-.02.01-.034.01-.051.012-.126.03-.25.063-.376.098-.013 0-.027.01-.043.013-.038.01-.074.022-.114.034-.016.01-.035.01-.05.015-.039.01-.077.022-.113.034-.015 0-.027.01-.04.01-.087.033-.172.066-.261.093-.038.012-.078.027-.119.042-.016.01-.031.013-.05.02-.038.012-.076.028-.11.042-.014.01-.028.012-.037.017C14.813 3.94 11.49 12.571 4.479 26.21A66.26 66.26 0 0 0 3 34h.375c1.058 0 1.356-.01 2.573-.01h1.179c.084-.012.17-.012.258-.018h.016c.037 0 .073-.011.108-.011h.026c.04 0 .084-.011.127-.016 5.482-11.883 11.424-21.34 17.343-27.027.651-1.488 1.293-2.625 1.995-3.485-.41-.7-.86-1.287-1.363-1.712 0 0-.013 0-.014-.011-.029-.012-.056-.026-.084-.04l-.082-.043a.89.89 0 0 1-.081-.04c-.036-.01-.064-.026-.095-.04-.026-.01-.049-.022-.074-.032a3.144 3.144 0 0 1-.156-.066c-.023-.01-.044-.016-.066-.025a2.194 2.194 0 0 1-.116-.047c-.019-.01-.04-.013-.062-.02l-.16-.056h-.014c-.062-.021-.123-.036-.187-.054-.014-.01-.027-.01-.041-.013l-.157-.044c-.013 0-.026-.011-.037-.011a5.502 5.502 0 0 0-.39-.086c-.013 0-.027-.011-.04-.011a2.286 2.286 0 0 0-.17-.027c-.013-.011-.02-.011-.033-.011a4.458 4.458 0 0 0-.2-.026h-.035c-.054-.011-.104-.012-.154-.018-.085.01-.166.015-.246.023"/>
        <path fill="url(#m)" d="M62.449 9.121C61.077 13.466 59.967 17.051 59 20c3.763-5.122 7.47-11.565 11-19-4.117 1.279-6.314 4.207-7.551 8.121"/>
        <path fill="url(#n)" d="M59.567 31.728c-.19.097-.38.19-.567.272 7.236-3.23 15.868-16.046 20-32h-.837c-9.495 16.979-12.548 28.345-18.596 31.728"/>
        <path fill="#079AE1" d="M54.466 30c1.55-1.818 2.811-4.908 4.534-10-1.987 2.624-3.988 4.88-5.99 6.719 0 .01 0 .01-.01.016.437 1.258.916 2.369 1.462 3.265"/>
        <path fill="#1969BC" d="M54.9 30a5.564 5.564 0 0 1-1.53 1.224 5.897 5.897 0 0 1-.37.182 5.744 5.744 0 0 0 2.264.585h.02c.048 0 .1 0 .152.009H55.955c.02 0 .04 0 .058-.009.038 0 .077 0 .115-.008H56.185c.039 0 .082-.009.124-.013h.01c.012 0 .025-.008.038-.008.044-.009.09-.013.133-.019h.039l.15-.022h.023c.1-.018.199-.035.298-.058-.823-.275-1.512-.924-2.105-1.848"/>
        <path fill="#1E5CB3" d="M42 33c.671 0 1.349-.093 2.03-.278.629-.162 1.26-.41 1.892-.722a5.654 5.654 0 0 0 1.66.802c.454.131.924.198 1.418.198h-7zM49.005 33c1.65 0 2.957-.269 4.067-1 .657.487 1.375.812 2.179.943.118.016.234.03.356.042h.021A.7.7 0 0 1 55.8 33H56h-7 .005z"/>
        <path fill="#1D60B5" d="M55 32.083H55.445c.026 0 .05 0 .076-.01.048 0 .1 0 .151-.012H55.746c.051 0 .107-.01.16-.015h.014c.016 0 .033-.01.049-.01.057-.01.117-.015.173-.023.019 0 .034 0 .053-.01.064-.011.13-.017.196-.027h.031c.13-.022.259-.044.388-.072.376.12.767.18 1.19.18l-2.998.012-.002-.013z"/>
        <path fill="#175FAB" d="M53.476 27.01V27a32.78 32.78 0 0 1-2.283 1.878c-.397.296-.793.576-1.193.84.335.376.675.727 1.033 1.048A7.992 7.992 0 0 0 52.794 32a7.06 7.06 0 0 0 .43-.216c.647-.355 1.227-.833 1.776-1.461-.568-.91-1.067-2.037-1.52-3.314"/>
        <path fill="url(#o)" d="M75.388 0h-4.156c-.225.01-.443.018-.659.032-.102.218-.206.435-.306.654-3.441 7.304-7.055 13.633-10.723 18.665-1.725 5.291-2.991 8.502-4.544 10.39.664 1.13 1.436 1.923 2.354 2.259.027-.01.048-.01.072-.016h.015c.016 0 .034-.01.051-.01.038-.011.078-.018.115-.03.024-.01.044-.011.069-.019.034-.01.07-.018.103-.026.021-.011.042-.014.064-.019l.152-.046c.025-.01.05-.019.077-.025.03-.01.059-.018.085-.031.031-.01.062-.016.089-.028.024-.01.05-.017.072-.027.06-.021.12-.04.18-.063.015 0 .031-.014.049-.018.036-.015.073-.026.11-.042.013-.011.03-.012.046-.018.126-.052.256-.105.386-.164h.013c.185-.08.372-.172.558-.266C65.626 27.83 68.637 16.67 78 .002h-2.615L75.388 0z"/>
        <path fill="#7DCBEC" d="M23 1.009c.015 0 .03 0 .044.01.038 0 .075 0 .113.012h.037c.068.01.136.017.206.026.012 0 .023 0 .034.011.057.01.115.02.174.028.012 0 .029.011.043.011.133.026.269.053.4.087.012 0 .024.01.035.01.056.014.106.03.161.045.017 0 .03.01.045.013.065.017.126.033.19.054.002 0 .006 0 .014.01.054.016.11.037.166.056.022.01.043.015.064.02.039.017.082.033.12.048.022 0 .044.015.067.023.052.023.106.043.158.065l.078.033c.03.015.062.03.096.04l.084.04c.03.014.057.026.085.041A7.964 7.964 0 0 1 27.323 3c.216-.223.443-.422.677-.602C26.717 1.508 25.263 1 23.586 1c-.195 0-.389.01-.586.025"/>
        <path fill="#5EC5ED" d="M28 2.713c.365.388.714.82 1.045 1.287.32-.254.637-.499.955-.727A10.558 10.558 0 0 0 28.686 2c-.238.21-.466.449-.686.713"/>
        <path fill="url(#p)" d="M1.265 1.763c.19.018.376.026.563.026 1.612 0 3.01-.561 4.243-1.544C7.372 1.4 8.945 1.803 11.13 1.803H.548c.244 0 .483-.016.717-.04" transform="matrix(1 0 0 -1 22 2)"/>
        <path fill="url(#q)" d="M5.979 2.804C3.725 2.804 2.102 2.4.76 1.245 1.206.901 1.635.502 2.042.058c1.869 1.296 3.72 2.155 5.544 2.53.696.142 1.39.216 2.075.216H5.979z" transform="matrix(1 0 0 -1 27 3)"/>
        <path fill="url(#r)" d="M58.99 19.835c.942-2.977 2.02-6.59 3.357-10.974 1.205-3.949 3.338-6.901 7.344-8.19.106-.22.206-.448.309-.671-6.531.401-9.583 3.807-11.12 8.85C56.194 17.655 54.567 23.363 53 27c2.001-1.961 4.002-4.368 5.99-7.165"/>
    </g>
</svg>
