<svg xmlns="http://www.w3.org/2000/svg" xmlns:xlink="http://www.w3.org/1999/xlink" width="123" height="62" viewBox="0 0 123 62">
    <defs>
        <path id="a" d="M0 0h122.188v61.922H0z"/>
    </defs>
    <g fill="none" fill-rule="evenodd">
        <mask id="b" fill="#fff">
            <use xlink:href="#a"/>
        </mask>
        <path fill="#6181B6" d="M36.028 20.961h-5.002l-2.727 14h4.441c2.943 0 5.136-.29 6.577-1.4 1.441-1.108 2.413-2.828 2.917-5.42.484-2.492.264-4.435-.66-5.459s-2.772-1.72-5.546-1.72zm56.985 0h-5l-2.728 14h4.442c2.942 0 5.135-.29 6.576-1.4 1.442-1.108 2.413-2.828 2.918-5.42.484-2.492.264-4.435-.66-5.459-.925-1.024-2.774-1.72-5.548-1.72zm13.754 7.822c-.318 1.637-.856 3.133-1.614 4.488-.757 1.357-1.748 2.598-2.97 3.722-1.458 1.364-3.078 1.927-4.86 2.507-1.782.581-4.053.461-6.812.461h-6.253l-1.732 10h-7.3l6.512-34H95.78c4.225 0 7.306 1.215 9.242 3.432 1.935 2.217 2.518 5.418 1.746 9.39zM66.508 39.961l2.881-14.42c.328-1.688.208-2.942-.36-3.555-.57-.614-1.783-1.025-3.636-1.025h-5.79l-3.73 19h-7.245l6.515-33h7.244l-1.732 9h6.453c4.061 0 6.861.815 8.402 2.231 1.541 1.416 2.003 3.356 1.387 6.528l-3.03 15.241h-7.359zm-21.31-2.968c-1.459 1.364-3.078 1.927-4.86 2.507-1.784.581-4.053.461-6.812.461h-6.253l-1.733 10h-7.3l6.514-34h14.04c4.224 0 7.305 1.215 9.242 3.432 1.937 2.217 2.52 5.364 1.747 9.337-.319 1.637-.856 3.16-1.614 4.515a15.118 15.118 0 0 1-2.972 3.748zM61.093 0C27.354 0 0 13.862 0 30.961c0 17.1 27.354 30.961 61.094 30.961s61.094-13.862 61.094-30.96C122.188 13.861 94.834 0 61.094 0z" mask="url(#b)"/>
    </g>
</svg>
