<svg xmlns="http://www.w3.org/2000/svg" width="112" height="112" viewBox="0 0 112 112">
    <g fill="none" fill-rule="evenodd">
        <path fill="#FFF" d="M56 0C41.042 0 26.979 5.825 16.402 16.402 5.825 26.979 0 41.042 0 55.999c0 14.959 5.825 29.022 16.402 39.599C26.979 106.174 41.042 112 56 112c14.958 0 29.021-5.826 39.598-16.402C106.175 85.021 112 70.958 112 55.999c0-14.957-5.825-29.02-16.402-39.597C85.021 5.825 70.958 0 56 0"/>
        <path fill="#D4B4F9" d="M48.26 82.073c.876.202 1.426 1.092 1.225 1.989a1.631 1.631 0 0 1-1.584 1.297c-.118 0-.238-.014-.36-.043-.16-.037-.319-.082-.479-.123-.992 2.393-2.482 4.05-4.443 4.926-1.125.5-2.272.679-3.327.679-2.484 0-4.484-.981-4.602-1.04a1.677 1.677 0 0 1-.842-1.976c.874-2.972 2.459-5.033 4.708-6.121.13-.063.26-.12.39-.175a26.888 26.888 0 0 1-3.955-3.35c-1.716 1.623-3.596 2.446-5.609 2.45h-.01c-4.157 0-7.152-3.623-7.276-3.776a1.694 1.694 0 0 1-.004-2.13c2.037-2.51 4.34-3.784 6.846-3.788h.006c.334 0 .656.03.973.074a29.62 29.62 0 0 1-1.81-4.523c-.984.34-1.938.511-2.857.511a7.073 7.073 0 0 1-2.808-.574c-3.876-1.652-5.317-6.32-5.375-6.52a1.673 1.673 0 0 1 .798-1.958c2.716-1.46 5.231-1.713 7.486-.745.523.223 1 .502 1.437.817-.002-.112-.007-.221-.007-.332 0-1.63.133-3.236.382-4.804-2.104-.425-3.786-1.41-5.004-2.953-2.735-3.473-1.953-8.418-1.918-8.63.136-.828.829-1.484 1.68-1.38 2.989.14 5.295 1.211 6.852 3.184.385.488.698 1.008.955 1.537a28.627 28.627 0 0 1 2.332-3.978c-1.607-1.883-2.429-3.949-2.44-6.157-.022-4.425 3.3-7.671 3.44-7.808a1.596 1.596 0 0 1 2.259.03c2.404 2.426 3.188 5.042 3.114 7.449a25.98 25.98 0 0 1 3.515-2.134c-.051-2.816.715-5.106 2.29-6.82 2.846-3.097 7.223-2.983 7.44-2.973.816.03 1.483.673 1.562 1.504.314 3.367-.432 6.06-2.223 8.01-2.37 2.578-5.815 2.926-7.011 2.967-3.084 1.434-5.769 3.527-7.938 6.094-.22.304-.44.582-.657.827-.014.015-.03.027-.045.04-3.381 4.394-5.333 10.006-5.333 15.995 0 10.79 6.51 20.354 15.793 23.706.35.107.605.201.74.254.556.179 1.12.338 1.693.471zm45.876-24.171a1.673 1.673 0 0 1 .797 1.959c-.058.199-1.5 4.868-5.374 6.519a7.084 7.084 0 0 1-2.808.574c-.92 0-1.875-.171-2.859-.513a29.593 29.593 0 0 1-1.81 4.525c.317-.043.639-.074.972-.074h.01c2.505.004 4.808 1.28 6.84 3.789a1.697 1.697 0 0 1 0 2.125c-.126.156-3.121 3.78-7.279 3.78h-.006c-2.011-.004-3.892-.827-5.609-2.45a26.943 26.943 0 0 1-3.954 3.35c.132.054.263.112.394.175 2.245 1.088 3.83 3.148 4.703 6.121a1.676 1.676 0 0 1-.841 1.976c-.118.059-2.12 1.04-4.603 1.04-1.057 0-2.203-.179-3.328-.68-1.962-.878-3.45-2.533-4.443-4.924-.16.04-.317.085-.477.122-.12.03-.242.043-.359.043a1.631 1.631 0 0 1-1.584-1.297c-.2-.897.349-1.787 1.226-1.988a21.513 21.513 0 0 0 1.688-.47c.132-.052.377-.143.717-.246 9.295-3.343 15.815-12.916 15.815-23.716 0-5.992-1.952-11.606-5.335-16-.012-.012-.027-.022-.038-.035-.213-.241-.43-.515-.647-.814-2.171-2.572-4.86-4.67-7.947-6.106-1.197-.042-4.641-.39-7.013-2.97-1.792-1.948-2.538-4.64-2.224-8.008.08-.83.747-1.475 1.563-1.504.216-.01 4.592-.123 7.441 2.977 1.575 1.71 2.342 4 2.29 6.816a25.93 25.93 0 0 1 3.514 2.135c-.075-2.407.71-5.024 3.111-7.45a1.597 1.597 0 0 1 2.26-.03c.139.137 3.46 3.387 3.442 7.808-.011 2.21-.834 4.275-2.44 6.16a28.598 28.598 0 0 1 2.33 3.98 8.408 8.408 0 0 1 .958-1.542c1.556-1.972 3.862-3.044 6.85-3.184.769-.11 1.544.552 1.68 1.384.036.208.814 5.153-1.921 8.627-1.217 1.542-2.9 2.527-5.003 2.953.249 1.568.382 3.172.382 4.803 0 .111-.006.22-.007.332a7.48 7.48 0 0 1 1.436-.816c2.252-.969 4.774-.712 7.49.744z"/>
        <path fill="#3D3D45" d="M59.481 68.657h-1.519V43.672c0-.61-.303-1.171-.789-1.465a1.396 1.396 0 0 0-1.546.055l-6.923 4.85c-.71.496-.917 1.53-.466 2.307.457.783 1.4 1.006 2.098.513l4.588-3.215v21.94h-4.558c-.84 0-1.52.749-1.52 1.671 0 .924.68 1.672 1.52 1.672h9.115c.84 0 1.519-.748 1.519-1.672 0-.922-.679-1.67-1.519-1.67"/>
    </g>
</svg>
