<svg xmlns="http://www.w3.org/2000/svg" xmlns:xlink="http://www.w3.org/1999/xlink" width="112" height="112" viewBox="0 0 112 112">
    <defs>
        <path id="a" d="M0 .253h53.756V30H0z"/>
    </defs>
    <g fill="none" fill-rule="evenodd">
        <path fill="#FFF" d="M56 0C41.042 0 26.979 5.825 16.402 16.402 5.825 26.979 0 41.042 0 55.999c0 14.959 5.825 29.022 16.402 39.599C26.979 106.174 41.042 112 56 112c14.958 0 29.021-5.826 39.598-16.402C106.175 85.021 112 70.958 112 55.999c0-14.957-5.825-29.02-16.402-39.597C85.021 5.825 70.958 0 56 0"/>
        <path fill="#FFD2C2" d="M50.89 53.934c1.117.898 9.46 1.864 11.364 0 0 0-1.577-3.106.197-5.937 1.774-2.83 3.613-7.042 3.547-9.113-.065-2.071-.13-10.839-2.365-12.358-2.233-1.519-9.787-4.142-11.823-1.173-2.036 2.968-2.562 2.692-3.022 7.11-.46 4.419-.788 5.316-.788 7.042s.657 2.831 1.314 4.28c.657 1.45 2.036 4.143 2.168 5.8.131 1.656-.592 4.35-.592 4.35"/>
        <g transform="translate(29 59)">
            <mask id="b" fill="#fff">
                <use xlink:href="#a"/>
            </mask>
            <path fill="#3D3D45" d="M10.69 2.957h10.749v4.057c0 .747.601 1.352 1.344 1.352h8.062c.742 0 1.344-.605 1.344-1.352V2.957h10.75v24.339h-32.25V2.956zM24.125 5.66h5.375V2.957h-5.375V5.66zm26.195.428a1.342 1.342 0 0 0-1.824-.536c-.651.36-.89 1.18-.533 1.835 2.002 3.676 3.105 7.696 3.105 11.299-.005.324-.199 7.432-5.443 8.477V1.604c0-.747-.601-1.351-1.344-1.351H9.345c-.742 0-1.343.604-1.343 1.352V27.15c-4.998-1.086-5.305-8.158-5.315-8.444 0-3.528 1.053-7.455 2.966-11.06a1.356 1.356 0 0 0-.554-1.83 1.345 1.345 0 0 0-1.818.557C1.134 10.422 0 14.685 0 18.75.117 22.64 2.222 30 9.344 30h34.937c7.372 0 9.421-7.372 9.474-11.292 0-4.07-1.22-8.55-3.435-12.618z" mask="url(#b)"/>
        </g>
        <path fill="#3D3D45" d="M46.587 43.734c.65 2.242 1.667 4.209 2.964 5.738l.003 1.628c-.054.56-.77 1.215-2.611 1.215-.757 0-1.37.6-1.37 1.342 0 .743.613 1.343 1.37 1.343 4.18 0 5.326-2.494 5.347-3.834v-2.197c0-.336-.128-.658-.358-.905-1.255-1.345-2.226-3.22-2.811-5.424a1.333 1.333 0 0 0-.501-.734c-.458-.338-.768-.879-.855-1.484a2.363 2.363 0 0 1 .467-1.791 1.33 1.33 0 0 0 .278-.81v-4.923c0-3.292 1.3-7.212 7.49-7.212 4.968 0 7.488 2.426 7.488 7.212v4.92c0 .293.098.577.278.81.395.51.561 1.148.47 1.794-.088.605-.4 1.148-.859 1.487-.245.18-.421.44-.5.734-.585 2.2-1.556 4.073-2.808 5.42-.23.248-.359.57-.359.906l.022 1.966a3.246 3.246 0 0 0 .751 2.576c.846.988 2.245 1.489 4.152 1.489.757 0 1.37-.6 1.37-1.343 0-.742-.613-1.342-1.37-1.342-1.41 0-1.894-.357-2.038-.512-.18-.194-.163-.424-.147-.637v-1.697c1.297-1.526 2.31-3.493 2.961-5.732a4.972 4.972 0 0 0 1.538-2.946 4.995 4.995 0 0 0-.722-3.388v-4.505C66.227 26.608 62.5 23 56 23c-6.404 0-10.229 3.7-10.229 9.898v4.507a4.992 4.992 0 0 0-.72 3.39 4.966 4.966 0 0 0 1.536 2.939"/>
        <path fill="#D4B4F9" d="M40 61h10.667v4.167c0 .767.596 1.389 1.333 1.389h8c.737 0 1.333-.622 1.333-1.389V61H72v25H40V61zm13.333 2.777h5.333V61h-5.333v2.777z"/>
        <path fill="#3D3D45" d="M53.945 74.4l.313-.313v3.09c0 1.008.779 1.823 1.741 1.823.964 0 1.743-.815 1.743-1.822v-3.09l.313.312c.337.338.772.506 1.204.506.459 0 .915-.19 1.259-.562.663-.73.64-1.885-.055-2.578l-3.258-3.262-.015-.011a1.757 1.757 0 0 0-.241-.2c-.013-.009-.027-.015-.04-.025a1.676 1.676 0 0 0-.252-.135l-.053-.02a1.724 1.724 0 0 0-.261-.079l-.063-.009a1.66 1.66 0 0 0-.32-.024 1.65 1.65 0 0 0-.24.024.591.591 0 0 0-.063.01c-.09.018-.176.046-.26.079-.018.006-.036.012-.054.02a1.766 1.766 0 0 0-.253.134c-.012.01-.026.016-.039.026a1.764 1.764 0 0 0-.242.199c-.004.004-.01.007-.013.011l-3.26 3.262c-.693.693-.717 1.847-.054 2.578a1.688 1.688 0 0 0 2.463.056M62.667 80H49.333c-.737 0-1.333.67-1.333 1.5s.596 1.5 1.333 1.5h13.334c.736 0 1.333-.67 1.333-1.5s-.597-1.5-1.333-1.5"/>
    </g>
</svg>
