<svg xmlns="http://www.w3.org/2000/svg" xmlns:xlink="http://www.w3.org/1999/xlink" width="112" height="112" viewBox="0 0 112 112">
    <defs>
        <path id="a" d="M0 .04h63.915v29.284H0z"/>
        <path id="c" d="M.416.227h9.935v9.929H.416z"/>
    </defs>
    <g fill="none" fill-rule="evenodd">
        <path fill="#FFF" d="M55.804.725c-14.818 0-28.75 5.743-39.227 16.172C6.099 27.327.328 41.193.328 55.941c0 14.75 5.77 28.616 16.249 39.046 10.478 10.428 24.41 16.172 39.227 16.172 14.818 0 28.75-5.744 39.228-16.172C105.51 84.557 111.28 70.69 111.28 55.94c0-14.748-5.77-28.615-16.248-39.044C84.554 6.468 70.622.725 55.804.725"/>
        <g transform="translate(24 59.095)">
            <mask id="b" fill="#fff">
                <use xlink:href="#a"/>
            </mask>
            <path fill="#3D3D45" d="M61.251 26.662H47.936V2.701H61.25v23.961zm-29.293-9.318v-6.656h13.315v15.974H31.958v-9.318zm-15.98 5.325v-3.994h13.316v7.987H15.979V22.67zM2.664 26.662h10.653V24H2.663v2.662zM62.583.04H46.605a1.33 1.33 0 0 0-1.332 1.33v6.656H30.626c-.736 0-1.332.596-1.332 1.33v6.657H14.647a1.33 1.33 0 0 0-1.331 1.331v3.994H1.332A1.33 1.33 0 0 0 0 22.668v5.325c0 .736.596 1.33 1.332 1.33h61.251a1.33 1.33 0 0 0 1.332-1.33V1.371A1.33 1.33 0 0 0 62.583.04z" mask="url(#b)"/>
        </g>
        <path fill="#FFB700" d="M85.251 85.775H71.936V61.814H85.25v23.96zm-29.293-9.318V69.8h13.315v15.975H55.958v-9.318zm-15.98 5.324v-3.993h13.316v7.987H39.979V81.78zm-13.315 3.994h10.653v-2.663H26.663v2.663z"/>
        <g transform="translate(40 24.44)">
            <mask id="d" fill="#fff">
                <use xlink:href="#c"/>
            </mask>
            <path fill="#3D3D45" d="M3.989 3.356a2.293 2.293 0 0 1 1.709-.446c.608.085 1.149.4 1.52.892.373.49.532 1.096.448 1.705a2.308 2.308 0 0 1-4.122 1.076 2.307 2.307 0 0 1 .445-3.227m1.402 6.8a4.944 4.944 0 0 0 2.99-1.005 4.92 4.92 0 0 0 1.923-3.28 4.927 4.927 0 0 0-.963-3.677A4.93 4.93 0 0 0 6.06.272a4.962 4.962 0 0 0-3.68.962 4.972 4.972 0 0 0-.959 6.958 4.973 4.973 0 0 0 3.969 1.964" mask="url(#d)"/>
        </g>
        <path fill="#3D3D45" d="M37.258 50.795a4.006 4.006 0 0 0 3 4.285l6.368 1.622c.572.157.967.662.98 1.25l.152 7.416a1.332 1.332 0 0 0 1.331 1.303h.026a1.332 1.332 0 0 0 1.305-1.358l-.15-7.42c-.044-1.778-1.226-3.288-2.962-3.764l-6.4-1.63a1.332 1.332 0 0 1-1.002-1.417l.938-8.33c.196-1.405 1.343-2.52 2.612-2.538 1.15.02 1.867.482 2.335 1.477.817 1.74 1.883 3.74 3.592 5.369l.263.25c.296.285.691.417 1.12.353l7.846-1.186a1.33 1.33 0 0 0 1.116-1.515c-.106-.728-.803-1.22-1.516-1.116l-7.194 1.088c-1.276-1.297-2.137-2.933-2.816-4.376-.913-1.94-2.544-3-4.788-3.007-2.593.04-4.832 2.118-5.212 4.87l-.944 8.374zM37.529 58.078l-.645 6.282-6.988 6.528a1.333 1.333 0 0 0 1.82 1.945l7.352-6.87c.234-.218.383-.516.414-.836l.694-6.78a1.332 1.332 0 0 0-1.188-1.459c-.738-.06-1.384.457-1.46 1.19M30.32 49.823a1.332 1.332 0 0 0 1.644-.916l2.278-8.007 3.037-.51a1.33 1.33 0 1 0-.442-2.626l-3.867.649a1.33 1.33 0 0 0-1.058.949l-2.508 8.817a1.329 1.329 0 0 0 .916 1.644"/>
    </g>
</svg>
